/* XPM */
static char *collectible[] = {
/* columns rows colors chars-per-pixel */
"32 32 185 2",
"   c #1E2437",
".  c #1F2538",
"X  c #25150D",
"o  c #271710",
"O  c #241D15",
"+  c #261F18",
"@  c #2D1D14",
"#  c #2A1F1A",
"$  c #311F15",
"%  c #252017",
"&  c #242219",
"*  c #2E221C",
"=  c #292C1E",
"-  c #342216",
";  c #352319",
":  c #312E1F",
">  c #3A2518",
",  c #3C2B1D",
"<  c #252D21",
"1  c #2A2F20",
"2  c #212639",
"3  c #273123",
"4  c #2B3423",
"5  c #293D2E",
"6  c #322A2B",
"7  c #322E33",
"8  c #392F30",
"9  c #323221",
"0  c #343334",
"q  c #33393A",
"w  c #3D3333",
"e  c #3A353B",
"r  c #2D354B",
"t  c #333C54",
"y  c #294332",
"u  c #2F4B36",
"i  c #2D4C3B",
"p  c #2D533E",
"a  c #354B34",
"s  c #364B38",
"d  c #384F3F",
"f  c #365035",
"g  c #31513A",
"h  c #3C5C3C",
"j  c #2D5540",
"k  c #2F5841",
"l  c #37564C",
"z  c #305942",
"x  c #385140",
"c  c #39574D",
"v  c #3B584F",
"b  c #3D5D57",
"n  c #3D5D58",
"m  c #3F4964",
"M  c #336146",
"N  c #356649",
"B  c #37684A",
"V  c #3A6343",
"C  c #3E6D49",
"Z  c #3C724F",
"A  c #3E7551",
"S  c #3F7953",
"D  c #422A1C",
"F  c #492F20",
"G  c #463C2B",
"H  c #4E3422",
"J  c #453633",
"K  c #40373B",
"L  c #473936",
"P  c #40383A",
"I  c #4B3C3A",
"U  c #503422",
"Y  c #563925",
"T  c #50392B",
"R  c #583B26",
"E  c #5A3D29",
"W  c #533F37",
"Q  c #433D42",
"!  c #433F48",
"~  c #4D403E",
"^  c #53413B",
"/  c #62442E",
"(  c #68472D",
")  c #69482E",
"_  c #6A4931",
"`  c #735135",
"'  c #745238",
"]  c #43404A",
"[  c #48444B",
"{  c #4B4942",
"}  c #454757",
"|  c #464758",
" . c #45495C",
".. c #4D4C5B",
"X. c #554542",
"o. c #554845",
"O. c #5A4A45",
"+. c #595157",
"@. c #5A535C",
"#. c #434B64",
"$. c #414D69",
"%. c #484E63",
"&. c #44506D",
"*. c #495362",
"=. c #4E5669",
"-. c #4C5B68",
";. c #4A5573",
":. c #4D5977",
">. c #535464",
",. c #535569",
"<. c #535E67",
"1. c #54596C",
"2. c #5B5762",
"3. c #535A73",
"4. c #595E73",
"5. c #585F78",
"6. c #406E48",
"7. c #42754D",
"8. c #43784F",
"9. c #407650",
"0. c #437C53",
"q. c #53606B",
"w. c #54607F",
"e. c #5F6073",
"r. c #5A617A",
"t. c #614F46",
"y. c #63524A",
"u. c #6A594F",
"i. c #645551",
"p. c #6B5A50",
"a. c #776151",
"s. c #786355",
"d. c #7A665A",
"f. c #7D6A5E",
"g. c #606174",
"h. c #606479",
"j. c #71717F",
"k. c #556080",
"l. c #5A6585",
"z. c #596789",
"x. c #586D82",
"c. c #5B688A",
"v. c #626982",
"b. c #626E8E",
"n. c #6C7184",
"m. c #647194",
"M. c #667599",
"N. c #67789A",
"B. c #68769B",
"V. c #68789C",
"C. c #727483",
"Z. c #747788",
"A. c #757889",
"S. c #468155",
"D. c #45865A",
"F. c #47895C",
"G. c #488356",
"H. c #498C5D",
"J. c #4D9361",
"K. c #4E9864",
"L. c #509A65",
"P. c #7B89A5",
"I. c #7C8AA8",
"U. c #846D5B",
"Y. c #877160",
"T. c #897464",
"R. c #858D9D",
"E. c #8B8C94",
"W. c #908E92",
"Q. c #949196",
"!. c #95949B",
"~. c #9C9B9E",
"^. c #8F96A3",
"/. c #9199A6",
"(. c #949DAA",
"). c #A19D9B",
"_. c #A5A2A1",
"`. c #A7A6A8",
"'. c #A8A6A7",
"]. c #A8A6A8",
"[. c #A2ACBE",
"{. c #A3AEC0",
"}. c #B6BEC9",
"|. c #B7C0CB",
" X c #B8C1CB",
/* pixels */
"L.L.L.L.L.K.K.K.K.K.K.K.K.K.L.K.K.K.K.K.K.K.K.K.K.K.K.K.L.L.L.L.",
"L.L.L.J.S.8.7.8.7.8.8.8.8.7.9.9.9.8.8.8.7.7.7.7.7.7.8.0.J.K.L.L.",
"L.L.L.S.f 4 4 4 4 4 4 1 4 1 4 4 4 4 9 4 4 4 4 4 4 4 4 a 8.K.L.L.",
"L.J.S.h 9 * 6 7 7 6 # @ $ $ @ @ @ @ @ @ @ @ 6 7 7 6 * : h 0.J.L.",
"K.S.a 4 , J ..3.3.%.L D D 9 D D D D D D D J ..3.3.%.L , 9 a 8.K.",
"K.A 4 - F y.C.P.I.C.y.E R E E E E E E R E O.j.P.R.A.i.H - = 6.K.",
"K.A 4 - R s.Q.[.{.!.U._ ) _ _ _ _ _ _ _ _ a.W.[.{./.U.E - = 6.K.",
"L.8.4 - / U._. X}._.Y.` ` ' ' ` ' ' ' ` ` U.).}.}.].T./ > = 6.J.",
"L.A 9 - E U._. X X_.Y.' ` ` ' ' ' ` ` ` ` U.).}.}.].T./ 6 = 6.H.",
"K.8.4 - / U._.}. X_.Y.' ` ' ' ' ' ` ` ` _ U.).}.}.].T./ > 1 6.0.",
"L.8.4 - E U._.}. X_.Y.' ` ` ' ' ' ' ` ` ` U.).}. X].T./ > 1 6.G.",
"L.A 4 > / U._.}. X_.Y.' ` ' ' ' ' ' ` ` ` U.).}. X].T._ > 1 7.G.",
"L.8.4 - / U._.}.}._.Y.` ` ` ` ' ` ` ` ` ` U.).}.}.].T./ > 1 6.G.",
"K.8.4 - Y a.Q.[.[.!.d._ ( ) _ _ _ _ ) ) ( a.W.[.{.!.f.E > = 6.G.",
"K.8.4 @ D y.C.P.I.C.y.R R R E R E E E R E t.j.I.I.Z.i.H $ 1 6.G.",
"K.7.4 - L +.h.N.M.v.@.O.y.u.p.p.u.p.u.y.O.+.h.M.B.v.2.I $ 1 7.G.",
"K.7.4 6 ..v.m.m.M.m.v.n.E.~.~.~.).~.~.E.Z.v.b.M.m.m.v.>.7 1 6.0.",
"K.7.4 6 | r.l.z.z.r.5.n.R.(./.^.^./.(.R.n.5.k.c.c.l.r...7 1 6.H.",
"K.8.4 # 8 ! %.;.;.#.] [ <.r.1.%. .=.5.4.[ !  .;.;.%.} 8 # = 6.G.",
"D.C = o $ 8 | ;.;.| w w | m r 2 2 r #. .8 J | ;.;. .8 $ o = V 7.",
"N s & X @ w >.z.c.1.I I ,.3.t 2   r ;.1.I I >.c.c.3.P @ o % a z ",
"p y & X @ K 4.M.B.h.O.X.e.c.$.t t $.c.h.o.X.e.M.V.r.P @ X O 5 k ",
"p y & X @ K 5.M.B.h.o.X.e.m.c.w.k.l.m.h.o.X.g.M.V.r.Q * X O 5 p ",
"p y & X @ P 4.M.M.h.o.W @.h.r.h.h.h.r.2.W X.g.M.B.r.P * X O 5 p ",
"p y & o + P 4.M.V.h.O.T ^ o.o.o.o.o.o.^ T X.e.M.B.r.Q $ X O 5 k ",
"p y 3 % + J 3.M.V.h.o.H H H H H H U U U U ^ e.M.V.r.P @ O < y p ",
"p p y 3 % 0 3.M.V.r.o.H H H H H H H H H H ^ e.N.V.5.e + 3 y i p ",
"N M k y < 0 *.x.x.q.{ G G G G G G ~ G G G { <.x.x.-.q < y k M N ",
"F.0.M p y i l b b c d s s s s s a a a a s d c b n v i y i z S F.",
"K.H.A B B M k p p p p p p p p p g p p p p p p p p z M B N Z H.L.",
"L.K.H.H.F.0.N p p p p p k p k p p k p k p p p p p z S F.F.H.K.K.",
"L.K.L.L.K.F.N p p k p p p p p p p p p p p p p p k N D.L.L.L.L.K."
};
