/* XPM */
static char *exit[] = {
/* columns rows colors chars-per-pixel */
"32 32 56 1",
"  c #509B66",
". c #6DAA5C",
"X c #99BE4C",
"o c #ACC745",
"O c #B9CD41",
"+ c #AEC844",
"@ c #91BB4E",
"# c #60A260",
"$ c #B9CE40",
"% c #AFC944",
"& c #95BC4D",
"* c #8CB850",
"= c #BDD040",
"- c #B0C943",
"; c #569E64",
": c #81B354",
"> c #539D65",
", c #9CBF4B",
"< c #6EA95B",
"1 c #86B552",
"2 c #79AF57",
"3 c #569F64",
"4 c #ABC745",
"5 c #B8CD40",
"6 c #5BA061",
"7 c #549D65",
"8 c #AAC746",
"9 c #78AF58",
"0 c #539C65",
"q c #9FC149",
"w c #7AAF57",
"e c #7FB255",
"r c #89B651",
"t c #94BC4E",
"y c #60A360",
"u c #96BD4D",
"i c #5DA161",
"p c #62A460",
"a c #6BA85C",
"s c #63A45F",
"d c black",
"f c #85932D",
"g c #21250B",
"h c #573A23",
"j c #989E33",
"k c #695528",
"l c #402717",
"z c #AC7B5D",
"x c #DBD2C7",
"c c #21110D",
"v c #C1AC8F",
"b c #A4A8B5",
"n c #787E97",
"m c #2C65B5",
"M c #1D438A",
"N c #2E543F",
/* pixels */
"             .XoO+@#            ",
"             $%&*o=-;           ",
"             :>   ,=<           ",
"                  1=2           ",
"                 3456           ",
"                78=9            ",
"               0q=w             ",
"               e=r              ",
"               t=y              ",
"               u=i              ",
"               pa>              ",
"               sa7              ",
"            dddf=gd             ",
"            dhhj=kddd           ",
"            ddhhlhhhld          ",
"           dlhhhhhhhhd          ",
"          dlhhhhlhhhhld         ",
"          dhhhllllhhhhd         ",
"          dhhhlzzzzlhhd         ",
"        dddhhlzzzzzzlhd         ",
"        dxdlhzcvvvczld          ",
"        dxxdhvcvvvcvzd          ",
"        dxxbzvvvvvvvzd          ",
"         dxblzvvvvvzd           ",
"          dlvvzzzzzld           ",
"         dllvvhnnnhhld          ",
"         ddddhhnbbhhhd          ",
"             dmmMMmmMd          ",
"            NdhhmdllldN         ",
"           NNdhhlddlldNN        ",
"           NNNNNNNNNNNNN        ",
"            NNNNNNNNNNN         "
};
