/* XPM */
static char *player[] = {
/* columns rows colors chars-per-pixel */
"32 32 12 1",
"  c #509B66",
". c black",
"X c #573A23",
"o c #402717",
"O c #AC7B5D",
"+ c #21110D",
"@ c #C1AC8F",
"# c #787E97",
"$ c #A4A8B5",
"% c #2C65B5",
"& c #1D438A",
"* c #2E543F",
/* pixels */
"                                ",
"                                ",
"                                ",
"                                ",
"                                ",
"                                ",
"                                ",
"                                ",
"            .... ..             ",
"            .XXo.X...           ",
"            ..XXoXXXo.          ",
"           .oXXXXXXXX.          ",
"          .oXXXXoXXXXo.         ",
"          .XXXooooXXXX.         ",
"          .XXXoOOOOoXX.         ",
"          .XXoOOOOOOoX.         ",
"          .oXO+@@@+Oo.          ",
"           .X@+@@@+@O.          ",
"           .O@@@@@@@O.          ",
"           .oO@@@@@Oo.          ",
"            .oOOOOOo.           ",
"           ..oo###oo.           ",
"          .@@oX#$$XoO.          ",
"          .@@XX%%%XXO.          ",
"           ..&%%%%%%.           ",
"            .oXX.%%%.           ",
"           **....oXXX.          ",
"          *******.XXX.*         ",
"          *************         ",
"           ***********          ",
"                                ",
"                                "
};
