/* XPM */
static char *wall[] = {
/* columns rows colors chars-per-pixel */
"32 32 5 1",
"  c black",
". c #242A3D",
"X c #414B66",
"o c #677598",
"O c #8F9AB0",
/* pixels */
"XoooXooooXooo XoooooXooooXooo oo",
"oooooooooXoooXoooooooooooXoooXoo",
"oooooOooo.Xoo.oooooooOooo.Xoo.oo",
"ooOOoXOOXoooXXooOOOOoXOOXoooooXX",
"oOooO.XXOOoooXoOooooO.XXOOOOOOoX",
"Xoooo...oooo..Xoooooo...oooooo..",
"oooXXo.oooXXX.ooooXXXo.oooooXXX.",
"oXXXXX.ooXXXX.oXXXXXXX.oooXXXXX.",
"XoXXXX.XXoXXX.XoXXXXXX.XXXXoXXX.",
".XXXX...XXXX...XXXXXX...XXXXXX..",
"..oooX...........ooooX..........",
".ooXXo.Xooooo...oooXXo.Xooooooo.",
"oXXoXXXooooooo.oXXXoXXXooooooooo",
"XXXXXXoooXXXXo.XXXXXXXoooXXXXXXo",
"XXXXX.oXXXXXXX.XXXXXX.oXXXXXXXXX",
".......XXXXXX..........XXXXXXXX.",
"oo..XooooX..oooooo..XooooX..oooo",
"Xoo.oooXXo.oooXXXoo.oooXXo.oooXX",
"oXX.oXXXXX.oXXXXoXX.oXXXXX.oXXXX",
"XXX..XXXX..XXXXXXXX..XXXX..XXXXX",
"XX..........XXXXXX..........XXXX",
"Xoooo...oooo..Xoooooo...oooooo..",
"oooXXo.oooXXX.ooooXXXo.oooooXXX.",
"oXXXXX.ooXXXX.oXXXXXXX.oooXXXXX.",
"XoXXXX.XXoXXX.XoXXXXXX.XXXXoXXX.",
".XXXX...XXXX...XXXXXX...XXXXXX..",
"..oooX...........ooooX..........",
".ooXXo.Xooooo...oooXXo.Xooooooo.",
"oXXoXXXooooooo.oXXXXXXXooooooooo",
"XXXXXXoooXXXXo.XXXXXXXoooXXXXXXo",
"XXXXX.oXXXXXXX.XXXXXX.oXXXXXXXXX",
".......XXXXXX..........XXXXXXXX."
};
